<svg width="211" height="73" viewBox="0 0 211 73" fill="none" xmlns="http://www.w3.org/2000/svg">
<path d="M8.26199 39.2054L3.40044 38.4151C3.9945 34.7872 4.65466 31.5026 5.38092 28.5613C6.12584 25.6196 6.93375 23.0959 7.80465 20.9901C8.67555 18.8843 9.60555 17.2618 10.5946 16.1225C11.6009 14.9642 12.6545 14.3733 13.7556 14.3497C15.9764 14.3021 18.1918 16.3138 20.4018 20.3848C22.6102 24.4372 24.6926 30.3372 26.6491 38.0848L21.7502 38.8606C21.4236 37.6377 21.076 36.3872 20.7074 35.1093C20.3373 33.8128 19.9609 32.5537 19.5783 31.332C19.1289 31.3229 18.6429 31.324 18.1204 31.3352C17.2059 31.3548 16.237 31.3942 15.2137 31.4534C14.209 31.5122 13.216 31.5987 12.2347 31.7129C11.2705 31.8081 10.3724 31.9112 9.54032 32.0222C9.28528 33.2203 9.04112 34.4368 8.80785 35.6717C8.59168 36.8876 8.40973 38.0655 8.26199 39.2054ZM12.0504 22.8C11.7129 23.683 11.2805 25.1086 10.7533 27.0765C11.5481 26.9663 12.3917 26.883 13.2844 26.8266C14.1756 26.7517 15.0504 26.705 15.9088 26.6866C16.6367 26.671 17.3381 26.6746 18.013 26.6974C17.6724 25.7543 17.3497 24.9133 17.0449 24.1744C16.7587 23.4352 16.5044 22.8536 16.282 22.4298C15.8062 21.4337 15.4018 20.7342 15.069 20.3314C14.7346 19.9099 14.4088 19.7026 14.0915 19.7094C13.7556 19.7166 13.4384 19.947 13.1398 20.4006C12.8396 20.8357 12.4765 21.6355 12.0504 22.8ZM28.5783 38.9659C28.5363 38.6873 28.4787 38.2226 28.4056 37.572C28.3341 36.9399 28.2517 36.1776 28.1583 35.2851C28.065 34.3926 27.9756 33.4349 27.89 32.4118C27.8029 31.3701 27.7158 30.3284 27.6287 29.2867C27.5323 28.1334 27.4406 27.0359 27.3535 25.9942C27.285 24.9521 27.2189 24.0497 27.1552 23.287C27.11 22.5239 27.0735 21.975 27.0455 21.6401L31.7694 21.4551C31.7756 21.9767 31.8005 22.6098 31.8441 23.3543C32.2749 22.6928 32.792 22.1693 33.3954 21.7836C33.9988 21.398 34.7111 21.1964 35.5322 21.1788C36.5213 21.1576 37.3572 21.4286 38.04 21.9916C38.7414 22.5543 39.3363 23.2963 39.8246 24.2175C40.9941 22.1054 42.5586 21.0283 44.5182 20.9863C45.6192 20.9627 46.5446 21.1851 47.2942 21.6536C48.0609 22.1031 48.683 22.7233 49.1604 23.5144C49.6379 24.3055 50.0119 25.2013 50.2825 26.2018C50.5718 27.2019 50.7888 28.2315 50.9334 29.2906C51.078 30.3497 51.1916 31.3722 51.274 32.3581C51.372 33.53 51.4428 34.6 51.4863 35.5681C51.5299 36.5361 51.5975 37.4571 51.6893 38.331L46.8464 38.4348C46.8091 37.9883 46.7616 37.421 46.7041 36.7327C46.6481 36.063 46.5913 35.3841 46.5338 34.6958C46.4933 33.9885 46.4521 33.3838 46.4101 32.8815C46.3666 32.3607 46.3409 32.0538 46.3331 31.9608C46.2398 30.8446 46.124 29.7942 45.9855 28.8096C45.8471 27.8249 45.6403 27.028 45.365 26.4189C45.0897 25.8099 44.7001 25.5107 44.1963 25.5215C43.711 25.5319 43.3012 25.7736 42.9669 26.2467C42.6325 26.7197 42.3471 27.3315 42.1108 28.0819C41.893 28.832 41.7165 29.6278 41.5812 30.4693C41.6792 31.1939 41.7679 31.9188 41.8472 32.6439C41.9249 33.3503 41.9918 34.0384 42.0478 34.7081C42.1116 35.4707 42.1575 36.1313 42.1855 36.6897C42.2337 37.2664 42.285 37.8803 42.3394 38.5313L37.6365 38.6321C37.5105 37.1253 37.39 35.7955 37.2749 34.6426C37.1598 33.4897 37.0292 32.3744 36.883 31.2967C36.6279 29.3641 36.3044 27.9548 35.9125 27.0687C35.5377 26.1636 35.0797 25.7168 34.5385 25.7284C33.9413 25.7412 33.4677 26.1147 33.1178 26.849C32.7663 27.5647 32.5027 28.4368 32.327 29.4655C32.4701 30.9533 32.6373 32.5057 32.8286 34.1229C33.0199 35.74 33.2252 37.301 33.4445 38.8057L28.5783 38.9659ZM52.4478 18.2168C52.4338 18.0494 52.4104 17.8822 52.3778 17.7152C52.3622 17.5292 52.3451 17.3246 52.3264 17.1013C52.2767 16.5061 52.2425 15.8732 52.2238 15.2028C52.2051 14.5323 52.195 13.9641 52.1935 13.4983L57.1833 13.4753C57.1802 14.1089 57.1748 14.8265 57.167 15.628C57.1779 16.429 57.2098 17.2576 57.2627 18.1137L52.4478 18.2168ZM54.0062 38.1975C53.8538 37.0454 53.7138 35.8185 53.5863 34.5168C53.4572 33.1965 53.3374 31.8759 53.227 30.5552C53.0823 28.8252 52.9603 27.1414 52.8607 25.5036C52.7612 23.8659 52.6834 22.3767 52.6274 21.0362L57.44 20.9052C57.4369 21.7624 57.4789 22.8237 57.566 24.0891C57.6515 25.3358 57.7518 26.6474 57.8669 28.0239C57.9805 29.3819 58.1018 30.721 58.2309 32.0413C58.3599 33.3616 58.4789 34.561 58.5878 35.6395C58.7138 36.699 58.8102 37.5169 58.8771 38.0932L54.0062 38.1975ZM61.49 38.2608C61.4355 36.7153 61.3624 35.1701 61.2706 33.6254C61.1789 32.0806 61.07 30.5549 60.944 29.0482C60.8103 27.672 60.6687 26.3147 60.5194 24.9762C60.3872 23.6186 60.2309 22.3082 60.0505 21.0449L64.7418 20.8046C64.818 21.4925 64.9051 22.1988 65.0031 22.9234C65.538 22.1666 66.1788 21.5565 66.9253 21.0933C67.6889 20.6111 68.5839 20.3589 69.6103 20.337C70.0022 20.3286 70.5108 20.3736 71.136 20.472C71.7612 20.5704 72.4042 20.7709 73.0652 21.0736L72.9276 25.8005C72.4377 25.5315 71.9175 25.347 71.3669 25.2469C70.8335 25.1279 70.3895 25.0722 70.0349 25.0798C68.8405 25.1054 67.8685 25.6666 67.1189 26.7635C66.3864 27.8414 65.9502 29.3322 65.8103 31.236C65.9191 32.5381 66.0047 33.7849 66.0669 34.9762C66.1462 36.1485 66.1882 37.2098 66.1929 38.1601L61.49 38.2608ZM83.9495 37.8915C82.4565 37.9235 81.1299 37.7096 79.9697 37.25C78.8282 36.7899 77.8585 36.1492 77.0607 35.3277C76.2613 34.4876 75.6385 33.5226 75.1921 32.4327C74.7458 31.3428 74.4721 30.1933 74.371 28.9841C74.2683 27.7564 74.3881 26.6171 74.7302 25.5662C75.0894 24.4963 75.619 23.5625 76.3188 22.7649C77.0373 21.9668 77.9012 21.3427 78.9105 20.8924C79.9183 20.4236 81.038 20.176 82.2698 20.1496C83.5575 20.122 84.7705 20.3197 85.9089 20.7425C87.0473 21.1654 88.0606 21.7679 88.9486 22.5502C89.8366 23.3325 90.5497 24.2583 91.0878 25.3276C91.6445 26.3965 91.9758 27.5634 92.0816 28.8284C92.3164 31.6372 91.7247 33.8395 90.3063 35.4352C88.8865 37.0124 86.7675 37.8311 83.9495 37.8915ZM83.5436 33.3719C84.9059 33.3427 85.9098 32.9392 86.5552 32.1613C87.2193 31.383 87.4914 30.2777 87.3716 28.8454C87.2643 27.5619 86.7861 26.5379 85.937 25.7734C85.0878 25.0089 84.0287 24.6403 82.7597 24.6674C81.9945 24.6838 81.3118 24.9034 80.7115 25.3263C80.1096 25.7305 79.6407 26.2717 79.3048 26.9497C78.986 27.6088 78.86 28.3382 78.9269 29.1381C78.986 29.845 79.1835 30.5302 79.5195 31.1939C79.874 31.8572 80.3865 32.3959 81.0568 32.8102C81.7255 33.2058 82.5544 33.3931 83.5436 33.3719ZM103.042 37.3707C102.277 37.3871 101.596 37.178 100.999 36.7436C100.402 36.3091 99.8707 35.7708 99.4056 35.1285C98.9406 34.4862 98.5238 33.8616 98.1553 33.2545C97.4787 32.095 96.8209 30.8233 96.1817 29.4393C95.5425 28.0554 94.9639 26.6143 94.446 25.1159C93.9282 23.6176 93.5051 22.1358 93.177 20.6707L98.1832 19.8367C98.4771 21.5634 98.8465 23.1861 99.2913 24.7046C99.7361 26.2232 100.223 27.5731 100.752 28.7544C101.28 29.9357 101.8 30.8936 102.31 31.6281C102.414 31.7563 102.509 31.8847 102.595 32.0134C102.699 32.1416 102.751 32.2057 102.751 32.2057C102.788 32.2049 102.921 32.0064 103.15 31.6101C103.851 30.1602 104.476 28.4696 105.025 26.5385C105.574 24.6073 105.996 22.2782 106.292 19.5511L111.3 20.4222C110.961 22.1811 110.641 23.7161 110.339 25.027C110.036 26.3193 109.729 27.4533 109.418 28.429C109.107 29.4047 108.788 30.2874 108.462 31.077C108.133 31.8481 107.785 32.601 107.416 33.3356C107.179 33.8439 106.861 34.4097 106.465 35.0332C106.087 35.6562 105.618 36.1974 105.058 36.6566C104.498 37.1159 103.826 37.3539 103.042 37.3707ZM115.398 18.4895L112.816 17.1193C113.23 16.924 113.632 16.7011 114.022 16.4505C114.412 16.1999 114.696 15.905 114.874 15.5657L114.734 15.5687C114.398 15.5759 114.036 15.4998 113.649 15.3404C113.28 15.1806 112.951 14.9268 112.66 14.5789C112.388 14.2307 112.229 13.7868 112.184 13.2474C112.15 12.8381 112.216 12.4081 112.384 11.9573C112.571 11.506 112.884 11.1173 113.325 10.7911C113.782 10.4458 114.412 10.2646 115.214 10.2474C116.241 10.2255 116.992 10.4889 117.468 11.0377C117.962 11.5862 118.245 12.2883 118.317 13.144C118.357 13.6276 118.285 14.2162 118.1 14.9096C117.932 15.5841 117.623 16.2522 117.174 16.9141C116.741 17.5569 116.15 18.0821 115.398 18.4895ZM130.451 36.9233C129.182 36.9504 127.994 36.8268 126.886 36.5524C125.779 36.2779 124.767 35.9176 123.851 35.4713C122.935 35.0251 122.11 34.5489 121.376 34.0429L123.557 29.943C124.402 30.6517 125.204 31.1936 125.965 31.5686C126.725 31.9436 127.504 32.1972 128.3 32.3292C129.115 32.4608 129.989 32.5166 130.922 32.4967C131.725 32.4795 132.36 32.3634 132.828 32.1483C133.295 31.9147 133.514 31.6305 133.486 31.2957C133.463 31.0166 133.211 30.8077 132.732 30.6689C132.252 30.5115 131.643 30.3848 130.906 30.2887C130.167 30.1741 129.389 30.0324 128.571 29.8636C127.407 29.5903 126.315 29.269 125.293 28.8995C124.271 28.5301 123.424 28.0171 122.753 27.3607C122.099 26.7038 121.726 25.8173 121.633 24.7012C121.558 23.8083 121.707 23.0225 122.081 22.3436C122.452 21.6461 122.974 21.0666 123.646 20.6049C124.335 20.1243 125.127 19.7626 126.023 19.5198C126.919 19.277 127.852 19.1452 128.822 19.1244C130.502 19.0884 131.966 19.262 133.213 19.6453C134.477 20.0095 135.696 20.5052 136.871 21.1323L134.645 25.0374C134.053 24.6588 133.381 24.3377 132.63 24.0743C131.896 23.7919 131.158 23.584 130.418 23.4508C129.695 23.2986 129.025 23.2291 128.41 23.2423C127.738 23.2566 127.214 23.3704 126.84 23.5834C126.484 23.796 126.321 24.0883 126.352 24.4603C126.371 24.6836 126.622 24.8925 127.106 25.0871C127.606 25.2627 128.542 25.4943 129.912 25.7817C130.73 25.9505 131.595 26.1277 132.508 26.3131C133.42 26.4799 134.282 26.7317 135.095 27.0683C135.926 27.3859 136.611 27.8651 137.151 28.5058C137.707 29.1274 138.03 29.9684 138.119 31.0287C138.268 32.8145 137.666 34.225 136.313 35.2603C134.962 36.3142 133.008 36.8685 130.451 36.9233Z" fill="black"/>
<path d="M47.8131 67.5303C47.7731 66.9973 47.7411 66.4561 47.717 65.9066C47.6937 65.3738 47.6704 64.8409 47.6471 64.3081C47.5399 61.8605 47.4861 59.4882 47.4855 57.1915C47.4842 54.8781 47.5043 52.6731 47.5458 50.5764C46.8865 50.736 46.3351 50.8884 45.8917 51.0336L44.7418 47.0273C45.5475 46.7861 46.3963 46.5785 47.2883 46.4047C48.1961 46.2144 49.0808 46.0654 49.9423 45.9578C50.8198 45.8338 51.6241 45.7506 52.3552 45.7082C53.1022 45.6494 53.7174 45.6225 54.2007 45.6275C54.7174 45.6329 55.3525 45.6811 56.1061 45.7721C56.8763 45.8633 57.6673 46.0462 58.4789 46.321C59.3065 46.5792 60.0815 46.97 60.8041 47.4934C61.5266 48.0169 62.1239 48.7221 62.5958 49.6091C63.0837 50.4796 63.3564 51.5725 63.414 52.8879C63.4737 54.2533 63.2237 55.3907 62.6638 56.3003C62.1032 57.1932 61.3433 57.9093 60.384 58.4486C59.4241 58.9712 58.3575 59.343 57.1845 59.5638C56.0114 59.7847 54.8499 59.8891 53.7 59.8772C52.9667 59.8696 52.2653 59.829 51.5957 59.7555C51.614 60.5546 51.6403 61.3454 51.6746 62.128C51.7212 63.1936 51.7729 64.1845 51.8297 65.1004C51.8857 65.9997 51.9536 66.791 52.0335 67.4742L47.8131 67.5303ZM54.255 49.7223C53.8217 49.7178 53.3724 49.7298 52.9073 49.7583C52.4587 49.7869 52.0106 49.8239 51.5628 49.8691C51.5181 50.7508 51.4933 51.7075 51.4885 52.7393C51.4837 53.7711 51.4883 54.828 51.5024 55.91C52.1212 55.9663 52.7639 55.998 53.4305 56.0049C57.4303 56.0463 59.3785 54.8849 59.275 52.5205C59.2342 51.588 58.8039 50.8929 57.9843 50.435C57.1647 49.9771 55.9216 49.7396 54.255 49.7223ZM68.2708 67.7923C68.1713 66.6595 68.0916 65.4105 68.0319 64.0451C67.9743 62.7297 67.9381 61.3313 67.9232 59.8499C67.9083 58.3685 67.9177 56.8707 67.9514 55.3565C67.9844 53.8257 68.0525 52.3368 68.1557 50.89C67.892 50.9538 67.6366 51.0177 67.3895 51.0817C67.1584 51.1293 66.9443 51.1853 66.7472 51.2498L65.2984 47.2654C69.29 46.3581 72.6274 45.9184 75.3106 45.9462C80.7603 46.0027 83.5759 48.104 83.7574 52.25C83.8426 54.1981 83.2604 55.7399 82.0108 56.8753C80.7604 57.9941 78.8835 58.6903 76.3801 58.9639C77.9528 60.2618 79.524 61.3349 81.0937 62.1833C82.6793 63.0153 84.2761 63.7225 85.8842 64.3051L83.295 67.948C82.3979 67.6225 81.4536 67.1717 80.4622 66.5955C79.4708 66.0194 78.4852 65.3851 77.5054 64.6925C76.5256 64 75.587 63.2996 74.6898 62.5913C73.8092 61.8831 73.0225 61.2259 72.3297 60.6196C72.3633 61.7683 72.3976 62.9337 72.4327 64.1157C72.4837 65.2812 72.5366 66.4884 72.5912 67.7372L72.4478 67.8855C71.8145 67.879 71.1312 67.8719 70.3979 67.8643C69.682 67.8735 69.0335 67.9001 68.4524 67.944L68.2708 67.7923ZM75.2594 49.9151C74.7928 49.9102 74.3106 49.9302 73.8128 49.975C73.3143 50.0031 72.8165 50.0479 72.3194 50.1093C72.2936 51.041 72.2757 51.9645 72.2658 52.8798C72.2551 53.7784 72.2528 54.6771 72.2588 55.5759C72.9914 55.5669 73.7812 55.5335 74.6282 55.4757C75.4912 55.4014 76.3013 55.26 77.0584 55.0515C77.8149 54.8263 78.4252 54.4998 78.8896 54.0719C79.3706 53.6442 79.5955 53.0723 79.5641 52.3563C79.5277 51.5238 79.1594 50.9125 78.4594 50.5224C77.7593 50.1324 76.6927 49.9299 75.2594 49.9151ZM98.6449 68.0572C97.0784 68.041 95.6407 67.7348 94.3319 67.1388C93.0239 66.5593 91.881 65.7569 90.9032 64.7316C89.9255 63.7062 89.1582 62.5415 88.6014 61.2376C88.0446 59.9337 87.7345 58.5574 87.6711 57.1088C87.6128 55.7767 87.7555 54.4717 88.0994 53.1937C88.4425 51.8991 88.9995 50.7316 89.7702 49.691C90.5402 48.6339 91.5363 47.7954 92.7585 47.1756C93.9974 46.556 95.4751 46.2551 97.1917 46.2729C98.975 46.2914 100.538 46.6155 101.882 47.2452C103.225 47.8583 104.343 48.6771 105.238 49.7016C106.132 50.7261 106.816 51.8816 107.289 53.168C107.761 54.4544 108.027 55.772 108.086 57.1207C108.157 58.7358 107.98 60.2152 107.556 61.5589C107.132 62.9026 106.5 64.0694 105.66 65.0593C104.82 66.0325 103.803 66.7793 102.61 67.2995C101.416 67.8197 100.095 68.0723 98.6449 68.0572ZM98.4624 63.8862C99.4623 63.8966 100.377 63.6648 101.206 63.1907C102.034 62.7 102.683 61.9328 103.154 60.8892C103.624 59.8455 103.823 58.4828 103.749 56.8011C103.686 55.3525 103.351 54.159 102.743 53.2207C102.136 52.2824 101.372 51.5838 100.453 51.1249C99.5329 50.666 98.5815 50.4315 97.5982 50.4213C96.4816 50.4097 95.5487 50.5997 94.7996 50.9914C94.0504 51.3831 93.4575 51.9178 93.0207 52.5957C92.5832 53.2569 92.2827 54.0027 92.1192 54.8332C91.9556 55.6636 91.8931 56.5201 91.9318 57.4026C91.9697 58.2684 92.1724 59.0944 92.54 59.8804C92.9068 60.6498 93.3867 61.3371 93.9795 61.9424C94.5883 62.5313 95.2754 63.0044 96.0406 63.3618C96.8052 63.7026 97.6124 63.8774 98.4624 63.8862ZM115.057 68.527L110.841 68.1088L111.015 50.9598C110.586 51.0552 110.191 51.1676 109.83 51.297L108.894 47.0433C109.77 46.8693 110.853 46.6891 112.144 46.5028C113.435 46.3165 114.772 46.2305 116.156 46.2448C117.222 46.2559 118.311 46.3837 119.421 46.6282C120.53 46.856 121.596 47.2332 122.619 47.7598C123.657 48.2698 124.587 48.9535 125.407 49.8108C126.244 50.6683 126.915 51.7155 127.419 52.9523C127.939 54.1893 128.236 55.6486 128.31 57.3303C128.413 59.6947 128.119 61.7138 127.426 63.3876C126.749 65.0449 125.704 66.3073 124.293 67.1747C122.898 68.0424 121.185 68.4657 119.151 68.4446C117.801 68.4306 116.457 68.167 115.119 67.6538C115.1 67.9865 115.079 68.2775 115.057 68.527ZM116.164 50.439C115.931 50.4366 115.689 50.4341 115.439 50.4315C115.408 53.5268 115.374 56.1644 115.336 58.3442C115.297 60.5074 115.26 62.3128 115.223 63.7604C115.73 63.9321 116.287 64.0877 116.893 64.2271C117.514 64.35 118.159 64.415 118.825 64.4219C120.175 64.4359 121.244 64.1058 122.03 63.4315C122.834 62.7575 123.394 61.8646 123.712 60.7528C124.029 59.6243 124.159 58.4024 124.101 57.087C124.056 56.038 123.858 55.1455 123.509 54.4096C123.161 53.6737 122.718 53.0616 122.18 52.5734C121.659 52.0854 121.092 51.705 120.481 51.4324C119.868 51.1431 119.268 50.9288 118.678 50.7896C118.106 50.6505 117.594 50.562 117.143 50.524C116.69 50.4694 116.364 50.4411 116.164 50.439Z" fill="#FFA81C"/>
</svg>
